<?xml version="1.0" encoding="UTF-8"?>
<svg width="440px" height="440px" viewBox="0 0 440 440" version="1.1" xmlns="http://www.w3.org/2000/svg" xmlns:xlink="http://www.w3.org/1999/xlink">
    <!-- Generator: Sketch 43.2 (39069) - http://www.bohemiancoding.com/sketch -->
    <title>Logo on white</title>
    <desc>Created with Sketch.</desc>
    <defs></defs>
    <g id="Luna-Circle-I" stroke="none" stroke-width="1" fill="none" fill-rule="evenodd">
        <path d="M183.731387,271.404005 C110.634453,271.404005 58.3682519,219.137804 58.3682519,145.662129 C58.3682519,120.47588 63.6706201,94.72152 71.6241725,82.0337102 C16.5174167,97.940815 -23.0609749,154.183793 -23.0609749,216.48662 C-23.0609749,292.234738 36.9694086,352.265121 113.096267,352.265121 C175.399094,352.265121 232.020812,312.497359 247.359806,257.958714 C233.914515,266.101637 208.349525,271.404005 183.731387,271.404005 Z" id="☾︎" fill="#FFFFFF" transform="translate(112.149416, 217.149416) scale(-1, 1) rotate(45.000000) translate(-112.149416, -217.149416) "></path>
        <rect id="Rectangle-5" fill="#FFFFFF" x="319" y="73" width="55" height="284"></rect>
        <path d="M272,158.811851 L344.73245,111.578846 L319.679054,73 L272,103.96314 L272,158.811851 Z" id="Combined-Shape" fill="#FFFFFF"></path>
    </g>
</svg>