<?xml version="1.0" encoding="UTF-8"?>
<svg width="1290px" height="300px" viewBox="0 0 1290 300" version="1.1" xmlns="http://www.w3.org/2000/svg" xmlns:xlink="http://www.w3.org/1999/xlink">
    <!-- Generator: Sketch 43.2 (39069) - http://www.bohemiancoding.com/sketch -->
    <title>Slice 9</title>
    <desc>Created with Sketch.</desc>
    <defs></defs>
    <g id="Page-7" stroke="none" stroke-width="1" fill="none" fill-rule="evenodd">
        <path d="M795.616562,192.868839 C733.402126,192.868839 688.917193,148.383906 688.917193,85.8471156 C688.917193,64.4105353 693.430157,42.4904232 700.199603,31.6915445 C653.29701,45.2304372 619.610956,93.1000939 619.610956,146.127424 C619.610956,210.598342 670.704158,261.691544 735.497431,261.691544 C788.524761,261.691544 836.716772,227.844312 849.772133,181.425252 C838.328545,188.355875 816.56961,192.868839 795.616562,192.868839 Z" id="☾︎" fill="#FFFFFF" transform="translate(734.691544, 146.691544) scale(-1, 1) rotate(45.000000) translate(-734.691544, -146.691544) "></path>
        <path d="M1033.2,214.56 L1033.84,214.56 L1033.84,33.44 L1065.52,33.44 L1065.52,260 L1025.52,260 L905.84,75.04 L905.2,75.04 L905.2,260 L873.52,260 L873.52,33.44 L914.8,33.44 L1033.2,214.56 Z M1126.28872,231.84 L1244.68872,231.84 L1244.68872,260 L1094.60872,260 L1094.60872,33.44 L1239.88872,33.44 L1239.88872,61.28 L1126.28872,61.28 L1126.28872,129.12 L1233.16872,129.12 L1233.16872,156.32 L1126.28872,156.32 L1126.28872,231.84 Z" id="NE" fill="#FFFFFF"></path>
        <path d="M75.12,239.52 L180.72,239.52 L180.72,260 L52.08,260 L52.08,33.44 L75.12,33.44 L75.12,239.52 Z M293.008719,260 C292.582051,255.946646 292.262054,251.466691 292.048719,246.56 C291.835385,241.653309 291.728719,237.600016 291.728719,234.4 L291.088719,234.4 C286.822031,243.14671 279.888767,250.239973 270.288719,255.68 C260.688671,261.120027 250.555439,263.84 239.888719,263.84 C220.901958,263.84 206.6621,258.186723 197.168719,246.88 C187.675339,235.573277 182.928719,220.640093 182.928719,202.08 L182.928719,110.24 L204.688719,110.24 L204.688719,193.12 C204.688719,201.013373 205.328713,208.159968 206.608719,214.56 C207.888726,220.960032 210.075371,226.45331 213.168719,231.04 C216.262068,235.62669 220.422027,239.199987 225.648719,241.76 C230.875412,244.320013 237.435347,245.6 245.328719,245.6 C251.088748,245.6 256.688692,244.426678 262.128719,242.08 C267.568747,239.733322 272.422031,236.160024 276.688719,231.36 C280.955407,226.559976 284.368707,220.480037 286.928719,213.12 C289.488732,205.759963 290.768719,197.066717 290.768719,187.04 L290.768719,110.24 L312.528719,110.24 L312.528719,227.04 C312.528719,231.093354 312.635385,236.319968 312.848719,242.72 C313.062054,249.120032 313.382051,254.879974 313.808719,260 L293.008719,260 Z M363.697439,110.24 C364.124108,114.293354 364.444104,118.773309 364.657439,123.68 C364.870773,128.586691 364.977439,132.639984 364.977439,135.84 L365.617439,135.84 C369.884127,127.09329 376.817391,120.000027 386.417439,114.56 C396.017487,109.119973 406.150719,106.4 416.817439,106.4 C435.8042,106.4 450.044058,112.053277 459.537439,123.36 C469.03082,134.666723 473.777439,149.599907 473.777439,168.16 L473.777439,260 L452.017439,260 L452.017439,177.12 C452.017439,169.226627 451.377445,162.080032 450.097439,155.68 C448.817432,149.279968 446.630788,143.78669 443.537439,139.2 C440.44409,134.61331 436.284132,131.040013 431.057439,128.48 C425.830746,125.919987 419.270812,124.64 411.377439,124.64 C405.61741,124.64 400.017466,125.813322 394.577439,128.16 C389.137412,130.506678 384.284127,134.079976 380.017439,138.88 C375.750751,143.680024 372.337452,149.759963 369.777439,157.12 C367.217426,164.480037 365.937439,173.173283 365.937439,183.2 L365.937439,260 L344.177439,260 L344.177439,143.2 C344.177439,139.146646 344.070773,133.920032 343.857439,127.52 C343.644104,121.119968 343.324108,115.360026 342.897439,110.24 L363.697439,110.24 Z M598.546158,163.36 C598.546158,150.346602 595.132859,140.640032 588.306158,134.24 C581.479457,127.839968 571.559557,124.64 558.546158,124.64 C549.586113,124.64 541.266197,126.239984 533.586158,129.44 C525.90612,132.640016 519.399518,136.90664 514.066158,142.24 L501.906158,127.84 C508.092856,121.653302 516.252774,116.533354 526.386158,112.48 C536.519542,108.426646 547.986094,106.4 560.786158,106.4 C568.892865,106.4 576.466123,107.519989 583.506158,109.76 C590.546193,112.000011 596.732798,115.359978 602.066158,119.84 C607.399518,124.320022 611.559477,129.973299 614.546158,136.8 C617.53284,143.626701 619.026158,151.626621 619.026158,160.8 L619.026158,226.4 C619.026158,232.160029 619.239489,238.133302 619.666158,244.32 C620.092827,250.506698 620.732821,255.733312 621.586158,260 L602.066158,260 C601.426155,256.373315 600.892827,252.426688 600.466158,248.16 C600.039489,243.893312 599.826158,239.733354 599.826158,235.68 L599.186158,235.68 C592.359457,245.706717 584.626201,252.906645 575.986158,257.28 C567.346115,261.653355 556.946219,263.84 544.786158,263.84 C539.026129,263.84 533.106189,263.040008 527.026158,261.44 C520.946128,259.839992 515.399517,257.226685 510.386158,253.6 C505.3728,249.973315 501.212841,245.280029 497.906158,239.52 C494.599475,233.759971 492.946158,226.720042 492.946158,218.4 C492.946158,206.879942 495.879462,197.760034 501.746158,191.04 C507.612854,184.319966 515.452776,179.306683 525.266158,176 C535.079541,172.693317 546.332761,170.560005 559.026158,169.6 C571.719555,168.639995 584.892757,168.16 598.546158,168.16 L598.546158,163.36 Z M592.146158,185.12 C583.186113,185.12 574.17287,185.49333 565.106158,186.24 C556.039446,186.98667 547.826195,188.479989 540.466158,190.72 C533.106121,192.960011 527.079515,196.213312 522.386158,200.48 C517.692801,204.746688 515.346158,210.399965 515.346158,217.44 C515.346158,222.77336 516.359481,227.253315 518.386158,230.88 C520.412835,234.506685 523.132808,237.439989 526.546158,239.68 C529.959509,241.920011 533.746137,243.519995 537.906158,244.48 C542.066179,245.440005 546.27947,245.92 550.546158,245.92 C558.226197,245.92 565.052795,244.58668 571.026158,241.92 C576.999521,239.25332 582.012805,235.62669 586.066158,231.04 C590.119512,226.45331 593.212814,221.173363 595.346158,215.2 C597.479502,209.226637 598.546158,202.933366 598.546158,196.32 L598.546158,185.12 L592.146158,185.12 Z" id="Luna" fill="#FFFFFF"></path>
    </g>
</svg>